<svg width="53" height="51" fill="none" xmlns="http://www.w3.org/2000/svg"><path d="M52.73 12.082a2.555 2.555 0 00-1.208-1.546 2.629 2.629 0 00-1.97-.256 2.587 2.587 0 00-1.572 1.19l-.432.74a.871.871 0 00-1.174.306l-2.194 3.68-.752-.425a.877.877 0 00-.658-.085.843.843 0 00-.206 1.556l.752.425-7.342 12.52-1.814 4.77-.864 1.588a2.516 2.516 0 00.139 2.755l-1.944 2.345-.544-1.342a1.725 1.725 0 00-1.467-1.06 1.735 1.735 0 00-1.617.822l-.31.518-.294-3.4a1.713 1.713 0 00-1.515-1.548 1.73 1.73 0 00-1.845 1.149l-2.125 6.273a.847.847 0 00.544 1.07.76.76 0 00.268.068.863.863 0 00.82-.577l2.117-6.273.302 3.45a1.71 1.71 0 001.332 1.516 1.74 1.74 0 001.872-.784l.32-.52.536 1.336a1.742 1.742 0 002.954.433l2.012-2.507c.223.057.453.086.683.085a2.6 2.6 0 002.254-1.259l.864-1.42 3.29-3.934 7.42-12.674.752.425c.2.113.346.3.406.519.06.218.028.45-.086.646l-3.455 5.89a.838.838 0 00.276 1.198.875.875 0 001.183-.314l3.455-5.89a2.513 2.513 0 00.26-1.938 2.557 2.557 0 00-1.21-1.548l-.752-.425 2.16-3.68a.843.843 0 00-.31-1.156l.431-.74a2.514 2.514 0 00.259-1.972zm-3.255.238a.862.862 0 01.527-.399.92.92 0 01.656.085c.2.113.346.3.406.519a.88.88 0 01-.086.645l-.432.74-1.503-.85.431-.74zM37.701 36.053l-.432-.247-1.279-.731 1.227-3.23 2.72 1.547-2.236 2.66zm-2.592 2.456a.841.841 0 01-.259-1.114l.432-.739 1.503.85-.432.731a.875.875 0 01-1.244.272zm5.813-6.51l-2.988-1.7 6.91-11.782 2.989 1.7-6.91 11.781zm7.774-13.253l-2.988-1.7 1.727-2.94 2.989 1.7-1.728 2.94zM14.626 38.089l-3.057 3-1.831-1.802a.874.874 0 00-1.218 0 .843.843 0 000 1.207l1.831 1.802a1.74 1.74 0 001.218.493c.459.003.9-.175 1.226-.493l3.049-3.009a.84.84 0 00-.045-1.154.874.874 0 00-1.173-.044z" fill="#FFBB01"/><path d="M4.451 40.375c0 3.99 3.288 7.225 7.342 7.225 4.055 0 7.342-3.234 7.342-7.225 0-.47-.387-.85-.864-.85a.857.857 0 00-.863.85c0 3.051-2.514 5.525-5.615 5.525-3.1 0-5.614-2.474-5.614-5.525s2.514-5.525 5.614-5.525a5.625 5.625 0 013.369 1.105.873.873 0 001.209-.17.84.84 0 00-.172-1.19 7.442 7.442 0 00-7.69-.682c-2.487 1.224-4.058 3.726-4.058 6.462zM32.092 6.8c.477 0 .864-.38.864-.85s-.387-.85-.864-.85H9.634a.857.857 0 00-.863.85v3.4c0 .47.386.85.863.85h22.458c.477 0 .864-.38.864-.85s-.387-.85-.864-.85H10.498V6.8h21.594zM12.226 11.9a.857.857 0 00-.864.85c0 .47.387.85.864.85H29.5c.477 0 .864-.38.864-.85s-.387-.85-.864-.85H12.226zM34.683 17.85H15.681a.857.857 0 00-.864.85c0 .47.387.85.864.85h19.002c.477 0 .864-.38.864-.85s-.387-.85-.864-.85zM26.045 23.8c0-.47-.387-.85-.864-.85H7.906a.857.857 0 00-.864.85c0 .47.387.85.864.85h17.275c.477 0 .864-.38.864-.85zM34.682 22.95h-6.045a.857.857 0 00-.864.85c0 .47.387.85.864.85h6.045c.477 0 .864-.38.864-.85s-.387-.85-.864-.85zM16.544 28.9c.477 0 .863-.38.863-.85s-.386-.85-.863-.85H7.906a.857.857 0 00-.864.85c0 .47.387.85.864.85h8.638zM20 28.9h6.045c.477 0 .863-.38.863-.85s-.386-.85-.863-.85h-6.046a.857.857 0 00-.863.85c0 .47.386.85.863.85z" fill="#FFBB01"/><path d="M39.866 39.1a.857.857 0 00-.864.85v8.5c0 .47-.387.85-.864.85H3.588a.857.857 0 01-.864-.85V2.55c0-.47.387-.85.864-.85h34.55c.477 0 .864.38.864.85v15.963c0 .47.387.85.864.85s.864-.38.864-.85V2.55c0-1.408-1.16-2.55-2.592-2.55H3.588C2.157 0 .997 1.142.997 2.55v45.9c0 1.409 1.16 2.55 2.591 2.55h34.55c1.431 0 2.592-1.141 2.592-2.55v-8.5c0-.47-.387-.85-.864-.85z" fill="#FFBB01"/></svg>