<svg width="53" height="51" fill="none" xmlns="http://www.w3.org/2000/svg"><path d="M44.919 37.437l-3.12 3.009-1.868-1.81a.908.908 0 00-1.251 0 .832.832 0 000 1.206l2.493 2.405c.166.161.391.252.626.252s.46-.09.626-.252l3.78-3.612a.832.832 0 00.284-.844.866.866 0 00-.65-.628.902.902 0 00-.876.274h-.044z" fill="#FFBB01"/><path d="M46.206 31.53v-2.634c0-.47-.394-.85-.881-.85H42.68v-.85c0-1.408 1.184-2.55 2.644-2.55.487 0 .881-.38.881-.85 0-.469-.394-.85-.881-.85-2.434 0-4.407 1.903-4.407 4.25v.85h-2.644c-.486 0-.881.38-.881.85v2.634c-4.52 1.998-6.986 6.762-5.926 11.446C32.527 47.66 36.827 51 41.8 51c4.971 0 9.272-3.34 10.332-8.024 1.06-4.684-1.406-9.448-5.926-11.445zm-3.525 17.763v-.85c0-.47-.395-.85-.881-.85-.487 0-.882.38-.882.85v.85c-4.203-.389-7.529-3.596-7.932-7.65h.882c.486 0 .88-.38.88-.849 0-.47-.394-.85-.88-.85h-.882c.333-3.174 2.48-5.901 5.562-7.062a.851.851 0 00.564-.79v-2.346H44.4v2.345c0 .35.224.664.563.79 3.117 1.136 5.302 3.869 5.65 7.063h-.881c-.487 0-.882.38-.882.85s.395.85.882.85h.88c-.402 4.053-3.728 7.26-7.931 7.649z" fill="#FFBB01"/><path d="M28.764 44.194H4.784c-1.46 0-2.645-1.142-2.645-2.55V14.448h45.83v15.689c0 .469.394.85.881.85s.881-.381.881-.85V8.498c0-2.347-1.973-4.25-4.406-4.25h-1.763V3.4c0-.469-.395-.85-.881-.85-.487 0-.882.381-.882.85v3.4c0 .939-.789 1.7-1.762 1.7-.974 0-1.763-.761-1.763-1.7v-3.4c0-.938.79-1.7 1.763-1.7.486 0 .881-.38.881-.85 0-.468-.395-.849-.881-.849-1.947 0-3.526 1.522-3.526 3.4v.85H28.58V3.4c0-.47-.394-.85-.881-.85s-.881.38-.881.85v3.399c0 .939-.79 1.7-1.763 1.7-.973 0-1.763-.761-1.763-1.7v-3.4c0-.938.79-1.7 1.763-1.7.487 0 .881-.38.881-.85 0-.468-.394-.849-.881-.849-1.947 0-3.525 1.522-3.525 3.4v.85h-7.932V3.4c0-.47-.395-.85-.882-.85-.486 0-.881.38-.881.85v3.399c0 .939-.79 1.7-1.763 1.7-.973 0-1.762-.761-1.762-1.7v-3.4c0-.938.789-1.7 1.762-1.7.487 0 .882-.38.882-.85 0-.468-.395-.849-.882-.849-1.947 0-3.525 1.522-3.525 3.4v.85H4.783C2.35 4.25.377 6.151.377 8.498v33.145c0 2.347 1.973 4.25 4.406 4.25h20.271c4.627 0 4.627 0 4.627-.85a.835.835 0 00-.256-.604.899.899 0 00-.66-.246zM4.784 5.949h1.762v.85c0 1.877 1.578 3.4 3.525 3.4 1.947 0 3.526-1.523 3.526-3.4v-.85h7.932v.85c0 1.877 1.578 3.4 3.525 3.4 1.947 0 3.525-1.523 3.525-3.4v-.85h7.932v.85c0 1.877 1.579 3.4 3.526 3.4 1.947 0 3.525-1.523 3.525-3.4v-.85h1.763c1.46 0 2.644 1.142 2.644 2.55v4.25H2.139v-4.25c0-1.408 1.184-2.55 2.644-2.55z" fill="#FFBB01"/><path d="M16.24 17.847c0-.469-.394-.85-.88-.85H8.309c-.487 0-.881.381-.881.85v6.8c0 .469.394.85.88.85h7.052c.486 0 .88-.381.88-.85v-6.8zm-1.762 5.95H9.19v-5.1h5.288v5.1zM15.36 30.596c.486 0 .88-.381.88-.85 0-.47-.394-.85-.88-.85H8.309c-.487 0-.881.38-.881.85v6.799c0 .469.394.85.88.85h7.052c.486 0 .88-.381.88-.85v-3.4c0-.47-.394-.85-.88-.85-.487 0-.882.38-.882.85v2.55H9.19v-5.1h6.17zM20.648 28.896c-.487 0-.882.38-.882.85v6.799c0 .469.395.85.882.85h7.05c.487 0 .882-.381.882-.85v-6.8c0-.469-.395-.85-.882-.85h-7.05zm6.169 6.799h-5.288v-5.1h5.288v5.1zM40.037 23.797c.487 0 .881-.381.881-.85v-5.1c0-.469-.394-.85-.881-.85h-7.05c-.488 0-.882.381-.882.85v6.8c0 .469.395.85.881.85.487 0 .882-.381.882-.85v-5.95h5.288v4.25c0 .469.394.85.88.85zM28.324 17.244a.898.898 0 00-.626-.251c-.235 0-.46.09-.625.251l-2.9 2.805-2.9-2.805a.908.908 0 00-1.251 0 .832.832 0 000 1.207l2.908 2.796-2.908 2.796a.835.835 0 00-.26.603c0 .227.093.444.26.604.165.16.39.251.626.251.235 0 .46-.09.625-.251l2.9-2.805 2.9 2.805c.165.16.39.251.625.251s.46-.09.626-.251a.834.834 0 00.26-.604.834.834 0 00-.26-.603l-2.908-2.796 2.908-2.796a.834.834 0 00.26-.604.834.834 0 00-.26-.603z" fill="#FFBB01"/></svg>