<svg width="53" height="51" fill="none" xmlns="http://www.w3.org/2000/svg"><path d="M50.89 21.382l-8.583 8.406-4.898-4.806 3.702-3.6a.837.837 0 00-.046-1.153.88.88 0 00-1.176-.045l-3.71 3.592-2.446-2.403 8.574-8.406a.837.837 0 000-1.198.88.88 0 00-1.222 0l-9.198 9.01a.84.84 0 000 1.206l1.23 1.197-1.23 1.206a4.403 4.403 0 00-5.453-.544l-.676-.662a4.383 4.383 0 00-3.06-1.24c-.543 0-1.081.098-1.587.289l-1.483-1.452.616-.595a.84.84 0 000-1.205l-8.609-8.407a.88.88 0 00-1.226.004.837.837 0 00.004 1.202l7.967 7.803-.616.595-4.334 4.203-3.06-3.006a.876.876 0 00-1.231 0 .836.836 0 000 1.198l3.068 3.006-1.23 1.197-1.154 1.248-7.967-7.838a.875.875 0 00-1.231 0 .837.837 0 000 1.198l8.583 8.406a.878.878 0 00.615.247.878.878 0 00.616-.247l1.196-1.197 1.222 1.197a4.185 4.185 0 000 6.004l1.63 1.57a.875.875 0 001.232 0 .837.837 0 000-1.197l-1.604-1.57a2.521 2.521 0 01-.765-1.805c0-.677.275-1.326.765-1.804l.607-.595 6.137-6.012a2.711 2.711 0 013.676 0l5.514 5.4a.837.837 0 01-.046 1.154.88.88 0 01-1.176.044l-3.997-3.914a.886.886 0 00-1.235.004.843.843 0 00.004 1.21l3.996 3.915a2.64 2.64 0 002.84.56 2.547 2.547 0 001.608-2.36c0-.676-.275-1.324-.763-1.801l-3.572-3.499a2.72 2.72 0 012.956.493l7.36 7.21a2.521 2.521 0 010 3.6l-2.453 2.403-2.514 2.454-1.777 1.75-4.907 4.805a.88.88 0 01-1.222 0 .836.836 0 010-1.197l5.557-5.418a.839.839 0 00.279-.843.858.858 0 00-.64-.627.878.878 0 00-.862.273l-5.522 5.4a.88.88 0 01-1.177-.044.837.837 0 01-.045-1.153l5.513-5.4a.84.84 0 000-1.206.88.88 0 00-1.222 0l-5.523 5.41a.88.88 0 01-1.222 0 .84.84 0 010-1.206l5.514-5.401a.84.84 0 000-1.206.88.88 0 00-1.223 0l-5.522 5.41a.88.88 0 01-1.227-.005.837.837 0 01.005-1.202l6.666-6.521a.84.84 0 000-1.206.884.884 0 00-1.23 0l-6.702 6.547a2.51 2.51 0 000 3.6 2.575 2.575 0 001.69.748c.078 1.292 1.134 2.323 2.454 2.394.073 1.297 1.13 2.332 2.453 2.403.025.639.294 1.245.755 1.699.781.763 1.97.961 2.964.492l.711.705c.73.716 1.824.94 2.787.572a2.551 2.551 0 001.652-2.27 2.575 2.575 0 001.734-.739c.45-.443.719-1.032.754-1.656 1.324-.071 2.38-1.107 2.454-2.403a2.597 2.597 0 002.318-1.618 2.509 2.509 0 00-.584-2.73l-.616-.594 1.231-1.206a4.203 4.203 0 001.266-2.998 4.188 4.188 0 00-.79-2.343l1.31-1.282.616.603a.88.88 0 001.222 0l9.172-9.01a.837.837 0 000-1.197.875.875 0 00-1.231 0zm-38.006 6.003l5.522-5.4 1.222 1.197-5.513 5.409-1.231-1.206zm17.165 21.62a.88.88 0 01-1.222 0l-.616-.603 1.231-1.198.607.595a.84.84 0 010 1.206zm2.453-2.404a.88.88 0 01-1.222 0L30.708 46l.615-.603.607-.595.616.595a.841.841 0 010 1.206h-.044zm2.454-2.403a.88.88 0 01-1.223 0l-.615-.602 1.222-1.198.616.603a.837.837 0 010 1.197zm2.453-2.402a.877.877 0 01-1.23 0l-.608-.604 1.205-1.197.616.603c.34.327.349.862.017 1.198zm1.222-10.81l-5.513-5.401 1.222-1.197 5.523 5.4-1.232 1.198z" fill="#FFBB01"/><path d="M16.833 13.586h19.068c.48 0 .867-.38.867-.849V.85A.858.858 0 0035.901 0H16.833a.858.858 0 00-.866.85v11.887c0 .47.388.85.866.85zm.867-3.396c.957 0 1.734.76 1.734 1.698H17.7V10.19zm17.335 1.698H33.3c0-.938.776-1.698 1.734-1.698v1.698zm0-8.491c-.958 0-1.734-.76-1.734-1.699h1.734v1.699zm0 1.698v3.397c-1.915 0-3.467 1.52-3.467 3.396H21.167c0-1.876-1.552-3.396-3.467-3.396V5.095c1.915 0 3.467-1.52 3.467-3.397h10.4c0 1.876 1.553 3.397 3.468 3.397zM17.7 1.698h1.734c0 .938-.777 1.699-1.734 1.699V1.698z" fill="#FFBB01"/><path d="M26.367 10.19c1.914 0 3.466-1.521 3.466-3.397s-1.552-3.396-3.466-3.396c-1.915 0-3.467 1.52-3.467 3.396s1.552 3.397 3.467 3.397zm0-5.095c.957 0 1.733.76 1.733 1.698s-.776 1.699-1.733 1.699c-.957 0-1.733-.76-1.733-1.699 0-.938.776-1.698 1.733-1.698zM33.3 6.793c0 .47-.387.85-.866.85a.858.858 0 01-.866-.85c0-.469.388-.849.866-.849.479 0 .867.38.867.85zM21.167 6.793c0 .47-.388.85-.867.85a.858.858 0 01-.867-.85c0-.469.388-.849.867-.849s.867.38.867.85zM52.222 5.477L48.755.382a.872.872 0 00-.72-.375.87.87 0 00-.719.375L43.85 5.477a.836.836 0 00-.147.467v3.397c0 .469.388.849.867.849.478 0 .866-.38.866-.85V6.2l2.6-3.822 2.6 3.822v9.086c0 .469.389.849.867.849.48 0 .867-.38.867-.85v-9.34a.836.836 0 00-.147-.467z" fill="#FFBB01"/><path d="M48.902 11.888V6.793a.858.858 0 00-.867-.849.858.858 0 00-.866.85v5.094c0 .47.388.85.867.85.478 0 .866-.38.866-.85zM1.232 7.642h.867v10.19c0 .47.388.85.866.85.479 0 .867-.38.867-.85V6.793a.858.858 0 00-.867-.849h-.052L5.566 2.31l2.652 3.634h-.052a.858.858 0 00-.867.85V8.49c0 .47.388.85.867.85.478 0 .867-.38.867-.85v-.849h.866a.87.87 0 00.768-.462.835.835 0 00-.066-.88L6.268.357a.873.873 0 00-.702-.35c-.278 0-.54.13-.703.35L.53 6.301a.834.834 0 00-.065.88.87.87 0 00.767.461z" fill="#FFBB01"/><path d="M5.565 11.888v2.548c0 .469.388.849.867.849.478 0 .866-.38.866-.85v-2.547a.858.858 0 00-.866-.849.858.858 0 00-.867.85z" fill="#FFBB01"/></svg>