<svg width="53" height="51" fill="none" xmlns="http://www.w3.org/2000/svg"><path d="M50.3 36.346V34h.866a.873.873 0 00.632-.264.891.891 0 00.234-.586l-1.55-28.9C50.333 1.91 48.355.088 45.966.088c-2.39 0-4.368 1.823-4.515 4.162L39.9 33.15a.892.892 0 00.233.63c.172.153.4.233.633.22h.867v2.346l-1.638 3.222a.836.836 0 000 .765l5.2 10.2a.734.734 0 00.181.246.876.876 0 00.355.195h.477a.871.871 0 00.355-.195.73.73 0 00.182-.247l5.2-10.2a.836.836 0 000-.764l-1.647-3.222zM41.676 32.3l.364-6.8h7.85l.408 6.8h-8.622zm1.508-28.007c0-1.507 1.245-2.73 2.782-2.73 1.536 0 2.781 1.223 2.781 2.73l1.049 19.55h-7.66l.094-1.7h4.827c.48 0 .867-.38.867-.85s-.388-.85-.867-.85h-4.74l.867-16.15zM48.566 34v1.7h-5.2V34h5.2zm-1.733 12.546V40.8h.867c.478 0 .866-.38.866-.85s-.388-.85-.866-.85h-3.467a.858.858 0 00-.866.85c0 .47.388.85.866.85h.867v5.746l-3.362-6.596 1.3-2.55h5.857l1.3 2.55-3.362 6.596zM29.5 11.05c.48 0 .867-.38.867-.85s-.388-.85-.866-.85H6.97a.858.858 0 00-.867.85v3.4c0 .47.388.85.866.85H29.5c.48 0 .867-.38.867-.85s-.388-.85-.866-.85H7.837v-1.7H29.5zM30.368 18.7c0-.47-.388-.85-.866-.85H10.437a.858.858 0 00-.866.85c0 .47.388.85.866.85h19.065c.478 0 .866-.38.866-.85zM5.237 22.95c0 .47.388.85.867.85h13.865c.478 0 .866-.38.866-.85s-.388-.85-.866-.85H6.104a.858.858 0 00-.867.85zM25.169 22.1a.858.858 0 00-.867.85c0 .47.388.85.867.85h3.466c.478 0 .866-.38.866-.85s-.388-.85-.866-.85h-3.466zM17.37 27.2c0-.47-.389-.85-.867-.85h-10.4a.858.858 0 00-.866.85c0 .47.388.85.867.85h10.399c.478 0 .866-.38.866-.85zM16.503 31.45c0-.47-.389-.85-.867-.85H6.104a.858.858 0 00-.867.85c0 .47.388.85.867.85h9.532c.479 0 .867-.38.867-.85zM6.104 34.85a.858.858 0 00-.867.85c0 .47.388.85.867.85h6.065c.478 0 .866-.38.866-.85s-.388-.85-.866-.85H6.104z" fill="#FFBB01"/><path d="M33.834 0H2.638c-1.436 0-2.6 1.142-2.6 2.55v39.1c0 1.408 1.164 2.55 2.6 2.55H17.37c.478 0 .866-.38.866-.85s-.388-.85-.866-.85H2.638a.858.858 0 01-.867-.85v-34h32.93v34c0 .47-.388.85-.867.85h-2.6a.858.858 0 00-.866.85c0 .47.388.85.867.85h2.6c1.435 0 2.6-1.142 2.6-2.55V2.55c0-1.408-1.165-2.55-2.6-2.55zM1.771 5.95v-3.4c0-.47.389-.85.867-.85h31.196c.479 0 .867.38.867.85v3.4H1.771z" fill="#FFBB01"/><path d="M24.302 31.45c-1.436 0-2.6 1.142-2.6 2.55s1.164 2.55 2.6 2.55c1.436 0 2.6-1.142 2.6-2.55s-1.165-2.55-2.6-2.55zm0 3.4a.858.858 0 01-.866-.85c0-.47.387-.85.866-.85s.866.38.866.85-.387.85-.866.85z" fill="#FFBB01"/><path d="M31.235 34a2.544 2.544 0 00-1.387-2.253 2.517 2.517 0 00-.646-2.553 2.636 2.636 0 00-2.603-.634 2.607 2.607 0 00-2.297-1.355c-.962 0-1.845.522-2.296 1.355a2.636 2.636 0 00-2.604.634c-.68.668-.93 1.65-.646 2.553A2.543 2.543 0 0017.376 34c0 .944.53 1.81 1.38 2.252a2.515 2.515 0 00.641 2.55c.17.166.362.306.573.417v10.93a.85.85 0 00.537.783.879.879 0 00.944-.179l2.851-2.805 2.851 2.805c.164.16.385.248.616.247a.736.736 0 00.329-.068.85.85 0 00.537-.782V39.227c.21-.11.403-.25.572-.416a2.515 2.515 0 00.641-2.55A2.544 2.544 0 0031.235 34zm-6.317 12.146a.874.874 0 00-1.23 0l-1.985 1.955v-8.584l.303-.077a2.606 2.606 0 002.296 1.354c.963 0 1.846-.52 2.297-1.354l.303.077V48.1l-1.985-1.955zm3.717-11.296h-.147a.867.867 0 00-.806.527.839.839 0 00.19.926l.105.102a.839.839 0 010 1.199.825.825 0 01-.347.212h-.13a.877.877 0 01-.745-.238l-.104-.102a.88.88 0 00-.948-.186.85.85 0 00-.534.79v.17c0 .47-.388.85-.867.85a.858.858 0 01-.866-.85v-.145a.85.85 0 00-.867-.85.876.876 0 00-.615.247l-.104.102a.876.876 0 01-.745.238h-.13a.818.818 0 01-.347-.213.839.839 0 010-1.198l.113-.102a.838.838 0 00.19-.927.866.866 0 00-.805-.526h-.157a.858.858 0 01-.866-.85c0-.47.388-.85.866-.85h.148a.868.868 0 00.806-.528.84.84 0 00-.191-.926l-.104-.102a.84.84 0 01-.004-1.203.879.879 0 011.226-.004l.104.11c.247.244.62.318.944.187a.85.85 0 00.538-.79v-.17c0-.47.388-.85.866-.85.479 0 .867.38.867.85v.144a.85.85 0 00.537.79c.324.132.698.058.945-.186l.104-.102a.88.88 0 011.226-.005.84.84 0 01.004 1.203l-.112.102a.839.839 0 00-.191.927c.134.32.453.529.806.527h.147c.479 0 .867.38.867.85s-.388.85-.867.85z" fill="#FFBB01"/></svg>